<svg
    version="1.1"
    id="Refract"
    xmlns="http://www.w3.org/2000/svg"
    xmlns:xlink="http://www.w3.org/1999/xlink"
    x="0px"
    y="0px"
    width="128px"
    height="128px"
    viewBox="0 0 128 128"
    enable-background="new 0 0 128 128"
    xml:space="preserve"
>
    <path
        fill="#50B979"
        d="M64,41.242l19.711,11.379v22.762L64,86.766L44.281,75.383V52.625L64,41.242 M64,32.004l-27.719,16V80
	L64,96.008L91.711,80V48L64,32.004L64,32.004z"
    />
    <path
        fill="#50B979"
        d="M31.957,44.984c2.254-14.098,15.207-29.883,33.141-35.723C85.18,2.707,97.453,9.41,97.453,9.41
	c4.445,4.555,10.555,12.762,14.844,20.199C97.953,18.547,76.68,13.332,59.68,18.75C42.664,24.172,34.832,37.41,31.957,44.984z"
    />
    <path
        fill="#50B979"
        d="M96.492,45.754c11.063,9,18.266,28.121,14.359,46.574c-4.367,20.656-16.313,27.93-16.313,27.93
	c-6.164,1.586-16.32,2.773-24.914,2.758c16.766-6.891,31.898-22.688,35.719-40.133C109.156,65.434,101.602,52.035,96.492,45.754z"
    />
    <path
        fill="#50B979"
        d="M63.551,101.258c-13.336,5.094-33.48,1.766-47.504-10.844C0.328,76.313,0,62.316,0,62.316
	c1.715-6.129,5.77-15.527,10.07-22.953c-2.406,17.953,3.703,38.98,16.906,51.004C40.176,102.383,55.559,102.563,63.551,101.258z"
    />
    <path
        fill="#50B979"
        d="M64.387,26.742c13.324-5.117,33.48-1.824,47.52,10.758C127.648,51.594,128,65.57,128,65.57
	c-1.711,6.137-5.742,15.547-10.031,22.984c2.383-17.973-3.766-38.984-16.992-50.984C87.758,25.566,72.383,25.43,64.387,26.742z"
    />
    <path
        fill="#50B979"
        d="M96.07,82.961c-2.234,14.102-15.164,29.906-33.082,35.773c-20.07,6.594-32.355-0.102-32.355-0.102
	c-4.457-4.539-10.586-12.734-14.879-20.164c14.367,11.031,35.637,16.227,52.637,10.773C85.398,103.789,93.211,90.539,96.07,82.961z"
    />
    <path
        fill="#50B979"
        d="M31.539,82.289c-11.09-8.977-18.324-28.082-14.434-46.535c4.328-20.68,16.258-27.973,16.258-27.973
	c6.16-1.586,16.328-2.797,24.91-2.797c-16.746,6.918-31.863,22.75-35.648,40.199C18.84,62.629,26.41,76.023,31.539,82.289z"
    />
</svg>
