<svg
    version="1.1"
    id="Refract"
    xmlns="http://www.w3.org/2000/svg"
    xmlns:xlink="http://www.w3.org/1999/xlink"
    x="0px"
    y="0px"
    width="490px"
    height="128px"
    viewBox="0 0 490 128"
    enable-background="new 0 0 490 128"
    xml:space="preserve"
>
    <path
        fill="#50B979"
        d="M64,41.242l19.711,11.379v22.762L64,86.766L44.281,75.383V52.625L64,41.242 M64,32.004l-27.719,16V80
	L64,96.008L91.711,80V48L64,32.004L64,32.004z"
    />
    <path
        fill="#50B979"
        d="M31.957,44.984c2.254-14.098,15.207-29.883,33.141-35.723C85.18,2.707,97.453,9.41,97.453,9.41
	c4.445,4.555,10.555,12.762,14.844,20.199C97.953,18.547,76.68,13.332,59.68,18.75C42.664,24.172,34.832,37.41,31.957,44.984z"
    />
    <path
        fill="#50B979"
        d="M96.492,45.754c11.063,9,18.266,28.121,14.359,46.574c-4.367,20.656-16.313,27.93-16.313,27.93
	c-6.164,1.586-16.32,2.773-24.914,2.758c16.767-6.891,31.897-22.688,35.719-40.133C109.156,65.434,101.602,52.035,96.492,45.754z"
    />
    <path
        fill="#50B979"
        d="M63.551,101.258c-13.336,5.094-33.48,1.766-47.504-10.844C0.328,76.313,0,62.316,0,62.316
	c1.715-6.129,5.77-15.527,10.07-22.953c-2.406,17.953,3.703,38.98,16.906,51.004C40.176,102.383,55.559,102.563,63.551,101.258z"
    />
    <path
        fill="#50B979"
        d="M64.387,26.742c13.324-5.117,33.48-1.824,47.52,10.758C127.648,51.594,128,65.57,128,65.57
	c-1.711,6.137-5.742,15.547-10.031,22.984c2.383-17.974-3.766-38.985-16.992-50.985C87.758,25.566,72.383,25.43,64.387,26.742z"
    />
    <path
        fill="#50B979"
        d="M96.07,82.961c-2.234,14.102-15.164,29.906-33.083,35.773c-20.07,6.594-32.355-0.103-32.355-0.103
	c-4.457-4.539-10.586-12.733-14.879-20.164c14.367,11.031,35.637,16.228,52.637,10.773C85.398,103.789,93.211,90.539,96.07,82.961z"
    />
    <path
        fill="#50B979"
        d="M31.539,82.289c-11.09-8.977-18.324-28.082-14.434-46.535c4.328-20.68,16.258-27.973,16.258-27.973
	c6.16-1.586,16.328-2.797,24.91-2.797c-16.746,6.918-31.863,22.75-35.648,40.199C18.84,62.629,26.41,76.023,31.539,82.289z"
    />
    <path
        fill="#4CB180"
        d="M178.078,53.58c0.891,0,1.906,0.063,3.047,0.172s2.266,0.25,3.375,0.438s2.125,0.375,3.047,0.555
	c0.922,0.188,1.609,0.352,2.047,0.5l-1.766,8.977c-0.813-0.297-2.156-0.648-4.047-1.055c-1.883-0.406-4.297-0.609-7.25-0.609
	c-1.922,0-3.828,0.203-5.703,0.609c-1.891,0.406-3.125,0.68-3.719,0.828V112.4h-10.297V57.236c2.438-0.883,5.469-1.719,9.078-2.492
	C169.516,53.971,173.578,53.58,178.078,53.58z"
    />
    <path
        fill="#45A38A"
        d="M196.359,83.713c0-5.102,0.733-9.547,2.211-13.352c1.477-3.797,3.43-6.953,5.867-9.469
	c2.437-2.516,5.25-4.391,8.422-5.648c3.172-1.257,6.422-1.883,9.75-1.883c7.75,0,13.695,2.422,17.828,7.25
	c4.141,4.844,6.203,12.204,6.203,22.102v1.719c0,0.703-0.031,1.353-0.109,1.938h-39.43c0.444,5.983,2.18,10.522,5.203,13.625
	c3.03,3.103,7.758,4.647,14.18,4.647c3.617,0,6.664-0.313,9.141-0.938c2.469-0.625,4.336-1.234,5.594-1.828l1.438,8.641
	c-1.25,0.664-3.453,1.367-6.595,2.109c-3.133,0.734-6.703,1.102-10.688,1.102c-5.016,0-9.359-0.758-13.016-2.272
	c-3.656-1.508-6.664-3.595-9.023-6.25c-2.367-2.664-4.117-5.82-5.258-9.478C196.93,92.08,196.359,88.064,196.359,83.713z
	 M235.898,78.064c0.069-4.656-1.086-8.478-3.492-11.469c-2.391-2.985-5.703-4.485-9.906-4.485c-2.367,0-4.453,0.461-6.266,1.391
	c-1.805,0.922-3.336,2.117-4.594,3.594c-1.25,1.478-2.234,3.172-2.938,5.094s-1.156,3.875-1.384,5.875H235.898L235.898,78.064z"
    />
    <path
        fill="#3D9297"
        d="M283.969,26.439c3.031,0,5.641,0.227,7.813,0.672c2.18,0.438,3.711,0.844,4.594,1.219l-1.875,8.859
	c-0.892-0.445-2.142-0.867-3.767-1.273c-1.625-0.406-3.625-0.609-5.983-0.609c-4.797,0-8.156,1.305-10.078,3.93
	s-2.883,6.148-2.883,10.578v4.984h22.155v8.641H271.79v48.96h-10.306V49.596c0-7.391,1.813-13.094,5.431-17.109
	C270.531,28.455,276.219,26.439,283.969,26.439z"
    />
    <path
        fill="#3787A0"
        d="M325.516,53.58c0.884,0,1.898,0.063,3.047,0.172c1.142,0.109,2.267,0.25,3.375,0.438
	c1.109,0.188,2.125,0.375,3.048,0.555c0.922,0.188,1.608,0.352,2.047,0.5l-1.767,8.977c-0.813-0.297-2.164-0.648-4.047-1.055
	s-4.305-0.609-7.258-0.609c-1.914,0-3.82,0.203-5.703,0.609s-3.117,0.68-3.711,0.828V112.4H304.25V57.236
	c2.438-0.883,5.461-1.719,9.078-2.492S321.008,53.58,325.516,53.58z"
    />
    <path
        fill="#3179AA"
        d="M366.5,104.979c2.438,0,4.594-0.055,6.477-0.164c1.884-0.108,3.453-0.313,4.711-0.608V87.033
	c-0.741-0.367-1.938-0.68-3.602-0.938c-1.664-0.267-3.68-0.392-6.039-0.392c-1.547,0-3.188,0.108-4.93,0.328
	c-1.734,0.227-3.32,0.688-4.758,1.391c-1.445,0.703-2.642,1.656-3.609,2.875c-0.953,1.22-1.438,2.828-1.438,4.82
	c0,3.694,1.188,6.258,3.547,7.694C359.219,104.26,362.438,104.979,366.5,104.979z M365.609,53.361c4.141,0,7.625,0.531,10.469,1.609
	c2.844,1.063,5.133,2.578,6.867,4.539c1.742,1.961,2.977,4.281,3.711,6.978c0.733,2.695,1.108,5.672,1.108,8.922v36
	c-0.891,0.141-2.125,0.344-3.711,0.609c-1.586,0.25-3.383,0.491-5.366,0.719c-2,0.219-4.156,0.422-6.484,0.609
	c-2.328,0.18-4.641,0.272-6.922,0.272c-3.25,0-6.242-0.336-8.978-0.992c-2.727-0.672-5.094-1.719-7.086-3.155
	c-2-1.445-3.547-3.345-4.655-5.712c-1.109-2.366-1.656-5.202-1.656-8.522c0-3.18,0.641-5.914,1.938-8.203
	c1.289-2.289,3.047-4.133,5.258-5.531c2.22-1.406,4.806-2.438,7.759-3.109c2.952-0.664,6.055-1,9.297-1
	c1.039,0,2.108,0.063,3.219,0.172c1.11,0.109,2.156,0.259,3.156,0.438c1,0.188,1.858,0.358,2.602,0.5
	c0.742,0.156,1.258,0.267,1.556,0.336v-2.883c0-1.695-0.188-3.375-0.556-5.039s-1.039-3.133-1.992-4.431
	c-0.969-1.297-2.272-2.327-3.938-3.102c-1.656-0.773-3.82-1.164-6.478-1.164c-3.397,0-6.366,0.242-8.914,0.719
	c-2.547,0.484-4.452,0.984-5.711,1.5l-1.211-8.531c1.328-0.594,3.539-1.164,6.642-1.719
	C358.633,53.643,361.992,53.361,365.609,53.361z"
    />
    <path
        fill="#2868B6"
        d="M429.859,113.729c-4.656,0-8.734-0.742-12.242-2.211c-3.508-1.483-6.461-3.547-8.867-6.203
	c-2.391-2.655-4.188-5.813-5.367-9.469c-1.179-3.656-1.772-7.703-1.772-12.133s0.647-8.492,1.938-12.188
	c1.297-3.695,3.125-6.883,5.484-9.579c2.358-2.695,5.266-4.805,8.694-6.32c3.431-1.508,7.259-2.266,11.461-2.266
	c2.595,0,5.173,0.219,7.759,0.664c2.586,0.445,5.055,1.148,7.422,2.102l-2.32,8.75c-1.555-0.734-3.344-1.328-5.375-1.766
	c-2.031-0.445-4.188-0.672-6.483-0.672c-5.759,0-10.173,1.813-13.234,5.438c-3.063,3.609-4.594,8.891-4.594,15.836
	c0,3.102,0.344,5.945,1.047,8.523c0.703,2.594,1.813,4.805,3.328,6.656c1.516,1.844,3.453,3.266,5.813,4.258
	c2.359,1,5.242,1.492,8.641,1.492c2.734,0,5.203-0.25,7.423-0.767c2.219-0.522,3.952-1.078,5.202-1.672l1.438,8.642
	c-0.586,0.375-1.438,0.727-2.547,1.063c-1.109,0.328-2.359,0.625-3.767,0.875c-1.397,0.266-2.891,0.484-4.483,0.672
	C432.867,113.643,431.336,113.729,429.859,113.729z"
    />
    <path
        fill="#225BC1"
        d="M465.969,54.799h21.82v8.641h-21.82v26.585c0,2.884,0.219,5.259,0.664,7.148
	c0.445,1.875,1.109,3.359,1.992,4.422c0.891,1.078,2,1.828,3.328,2.281c1.328,0.438,2.875,0.656,4.647,0.656
	c3.103,0,5.595-0.344,7.478-1.047s3.195-1.203,3.938-1.5l1.984,8.531c-1.031,0.516-2.844,1.164-5.422,1.938
	c-2.586,0.781-5.539,1.164-8.859,1.164c-3.922,0-7.147-0.5-9.694-1.492c-2.548-1-4.603-2.5-6.148-4.484
	c-1.547-2-2.641-4.453-3.266-7.375c-0.625-2.914-0.938-6.297-0.938-10.133V38.736l10.297-1.766V54.799z"
    />
</svg>
